<svg id="Layer_1" enable-background="new 0 0 256 256" height="512" viewBox="0 0 256 256" width="512" xmlns="http://www.w3.org/2000/svg"><path d="m123.927 82.943h-7.142c.001.115.012.227.012.342v3.463c.079-.002.155-.012.234-.012 4.288 0 8.017 2.371 9.926 5.862v-10.676c-.848.633-1.889 1.021-3.03 1.021z" fill="#4671c6"/><path d="m37.888 74.478c-.535-.401-1.039-.825-1.525-1.262-.024-.022-.046-.046-.071-.068-.468-.426-.911-.869-1.335-1.326v17.882c2.01-1.837 4.688-2.968 7.638-2.968.079 0 .155.01.234.012v-3.463c0-1.937.168-3.833.461-5.687-2.765-1.151-5.402-3.12-5.402-3.12z" fill="#4671c6"/><path d="m102.547 140.448h-5.994c-.013-.001-.026-.003-.039-.003l-.002.003h-39.431c-10.417 0-18.862 8.445-18.862 18.862v9.462 2.687 4.976 13.232 10.217 12.583 25.575h83.19v-25.575-12.583-10.217-13.232-4.976-2.687-9.462c0-10.417-8.445-18.862-18.862-18.862zm-22.733 49.217-22.317-49.217h44.635z" fill="#4671c6"/><path d="m57.496 140.448 22.318 49.217 22.317-49.217z" fill="#e0ebfc"/><path d="m121.409 240.04h-83.19c-1.104 0-2-.896-2-2v-78.73c0-11.503 9.358-20.862 20.862-20.862h39.335c.061-.003.121-.003.194 0h5.937c11.503 0 20.862 9.358 20.862 20.862v78.73c0 1.104-.896 2-2 2zm-81.19-4h79.19v-76.73c0-9.298-7.564-16.862-16.862-16.862h-5.994c-.014 0-.027 0-.041 0h-39.431c-9.298 0-16.862 7.564-16.862 16.862z" fill="#3762cc"/><path d="m184.834 179.915h-50.716l-14.027-27.499c.841 2.137 1.318 4.458 1.318 6.894v9.462 2.687 4.976 13.232 10.217 12.583h7.456 21.857 34.112c.987 0 1.787-.8 1.787-1.787v-28.975c0-.99-.8-1.79-1.787-1.79z" fill="#4671c6"/><path d="m118.385 149.089c.019.029.035.059.053.088l-.054-.106z" fill="#4671c6"/><path d="m118.439 151.177c-.667 0-1.317-.334-1.696-.938-.012-.019-.047-.078-.058-.097-.188-.292-.279-.601-.297-.949l-.001-.019c-.05-.944.569-1.794 1.483-2.038.913-.245 1.874.187 2.3 1.032l.054.106c.481.954.128 2.118-.803 2.643-.311.176-.649.26-.982.26z" fill="#3762cc"/><path d="m184.834 214.465h-63.425c-1.104 0-2-.896-2-2v-53.155c0-2.099-.397-4.171-1.18-6.162-.391-.993.067-2.117 1.04-2.556.972-.438 2.118-.035 2.603.915l13.47 26.407h49.492c2.088 0 3.787 1.699 3.787 3.788v28.975c0 2.089-1.699 3.788-3.787 3.788zm-61.425-4h61.212v-28.55h-50.504c-.752 0-1.44-.421-1.781-1.091l-8.927-17.5zm61.425-28.55h.01z" fill="#3762cc"/><path d="m79.749 148.087 10.382-7.639 6.4-4.709h.056v-2.39c-5.034 2.545-10.733 3.981-16.773 3.981-6.043 0-11.746-1.438-16.782-3.986v2.395l6.4 4.709z" fill="#f9cfcf"/><path d="m117.032 86.736c-.079 0-.155.01-.234.012v-3.463c0-20.242-16.558-36.651-36.984-36.651-20.426 0-36.984 16.409-36.984 36.651v3.463c-.079-.002-.155-.012-.234-.012-6.232 0-11.283 5.006-11.283 11.182 0 6.175 5.052 11.182 11.283 11.182.409 0 .813-.024 1.211-.066 3.817 16.214 18.483 28.297 36.007 28.297 17.524 0 32.191-12.082 36.007-28.297.398.042.801.066 1.211.066 6.232 0 11.283-5.006 11.283-11.182s-5.052-11.182-11.283-11.182z" fill="#f9cfcf"/><path d="m59.714 104.803c-2.462 0-4.465-2.003-4.465-4.464v-7.441c0-2.462 2.003-4.465 4.465-4.465 2.461 0 4.464 2.003 4.464 4.465v7.441c.001 2.461-2.002 4.464-4.464 4.464z" fill="#3762cc"/><path d="m99.738 104.803c-2.462 0-4.465-2.003-4.465-4.464v-7.441c0-2.462 2.003-4.465 4.465-4.465 2.461 0 4.464 2.003 4.464 4.465v7.441c.001 2.461-2.002 4.464-4.464 4.464z" fill="#3762cc"/><path d="m79.813 139.33c-17.653 0-32.858-11.527-37.541-28.234-7.176-.17-12.961-6.016-12.961-13.178 0-6.674 5.025-12.206 11.518-13.065v-1.568c0-21.312 17.488-38.651 38.984-38.651s38.984 17.339 38.984 38.651v1.568c6.493.859 11.518 6.391 11.518 13.065 0 7.162-5.785 13.007-12.961 13.178-4.683 16.707-19.888 28.234-37.541 28.234zm-36.005-32.297c.918 0 1.731.631 1.945 1.542 3.708 15.752 17.714 26.754 34.061 26.754 16.346 0 30.353-11.002 34.061-26.755.231-.979 1.155-1.64 2.157-1.53.329.035.662.055 1 .055 5.119 0 9.283-4.119 9.283-9.182 0-5.055-4.152-9.169-9.26-9.182l-.207.011c-.552.015-1.061-.191-1.446-.568s-.604-.893-.604-1.432v-3.463c0-19.106-15.694-34.651-34.984-34.651s-34.984 15.544-34.984 34.651v3.463c0 .539-.218 1.055-.604 1.432s-.905.581-1.446.568l-.194-.01s-.001 0-.002 0c-5.108 0-9.272 4.119-9.272 9.181 0 5.063 4.165 9.182 9.284 9.182.338 0 .671-.021 1-.055.071-.007.142-.011.212-.011z" fill="#3762cc"/><path d="m80.792 122.51c1.605 0 3.215-.337 4.606-1.137 1.006-.579 1.902-1.348 2.627-2.283.978-1.26 1.594-2.746 1.795-4.304.077-.597-.398-1.126-1-1.126h-18.014c-.602 0-1.077.529-1 1.126.201 1.558.817 3.044 1.795 4.304.726.935 1.621 1.704 2.627 2.283 1.391.8 3.001 1.137 4.606 1.137z" fill="#f9a7a7"/><path d="m79.749 148.087-6.32 9.779.962 6.315h5.358 5.357l.962-6.315z" fill="#f9a7a7"/><path d="m57.496 140.448h-.416c-4.114 0-7.918 1.321-11.018 3.557l8.081 18.37c.281.638.912 1.05 1.608 1.05h3.284c.887 0 1.215 1.165.459 1.628l-1.866 1.142c-.875.536-1.107 1.704-.503 2.533l22.689 31.154v-10.217z" fill="#4671c6"/><path d="m100.591 163.425h3.284c.697 0 1.328-.412 1.608-1.05l8.081-18.37c-3.1-2.236-6.904-3.557-11.018-3.557h-.416l-22.317 49.217v10.217l22.689-31.154c.604-.829.372-1.998-.503-2.533l-1.866-1.142c-.757-.463-.429-1.628.458-1.628z" fill="#4671c6"/><path d="m123.927 82.943h-8.145c-2.812 0-5.091-2.279-5.091-5.091v-36.313c0-2.812 2.279-5.091 5.091-5.091 7.31 0 13.236 5.926 13.236 13.236v28.169c0 2.811-2.279 5.09-5.091 5.09z" fill="#4671c6"/><path d="m117.41 177.967h-12.237c-.552 0-1-.448-1-1v-3.933c0-.552.448-1 1-1h12.237c.552 0 1 .448 1 1v3.933c0 .552-.447 1-1 1z" fill="#ffea92"/><path d="m237.675 17.793h-86.542c-6.883 0-12.462 5.579-12.462 12.462v42.709c0 6.883 5.579 12.462 12.462 12.462h22.03l-1.166 18.408c-.109 1.714 1.793 2.812 3.223 1.861l30.478-20.269h31.978c6.883 0 12.462-5.579 12.462-12.462v-42.709c-.001-6.883-5.58-12.462-12.463-12.462z" fill="#a4c9ff"/><g fill="#ffea92"><path d="m154.691 57.501-2.031-7.535-2.057 7.535c-.16.571-.287.981-.382 1.23-.094.249-.259.471-.492.669-.235.197-.546.296-.935.296-.314 0-.573-.059-.776-.176s-.368-.283-.493-.497c-.126-.214-.229-.469-.308-.763-.081-.294-.152-.567-.215-.819l-2.092-8.461c-.125-.491-.188-.866-.188-1.123 0-.326.114-.6.343-.823.228-.223.511-.334.848-.334.463 0 .775.149.935.446s.3.729.42 1.294l1.647 7.338 1.842-6.866c.137-.526.26-.926.369-1.2.108-.274.285-.511.531-.712.246-.2.581-.3 1.003-.3.429 0 .762.104.998.313.238.209.402.436.493.681s.215.652.369 1.217l1.86 6.866 1.646-7.338c.08-.383.156-.683.227-.9.072-.217.195-.411.369-.583.174-.171.428-.257.759-.257s.613.11.844.33c.232.22.348.496.348.827 0 .234-.064.609-.189 1.123l-2.092 8.461c-.142.571-.261.99-.356 1.256-.093.266-.254.499-.479.699-.226.2-.545.3-.956.3-.389 0-.7-.097-.934-.291-.235-.194-.398-.413-.489-.656-.093-.242-.221-.658-.387-1.247z"/><path d="m170.54 48.878h-5.735v3.086h5.281c.388 0 .678.087.87.261.191.174.287.404.287.69s-.094.519-.283.699-.48.27-.874.27h-5.281v3.575h5.932c.4 0 .701.093.904.279s.304.433.304.741c0 .297-.101.539-.304.724-.203.186-.504.279-.904.279h-6.918c-.554 0-.953-.123-1.195-.369-.244-.246-.365-.643-.365-1.192v-9.446c0-.366.055-.664.163-.896.108-.231.278-.4.51-.506s.527-.158.887-.158h6.721c.406 0 .707.09.904.27s.296.416.296.707c0 .297-.099.536-.296.716s-.498.27-.904.27z"/><path d="m176.463 48.243v9.146h5.16c.412 0 .728.1.948.3s.33.452.33.754c0 .309-.108.559-.326.75-.217.192-.534.287-.952.287h-6.146c-.555 0-.954-.123-1.196-.369-.243-.246-.364-.643-.364-1.192v-9.678c0-.514.115-.9.347-1.157s.536-.386.913-.386c.383 0 .693.127.93.381.238.257.356.644.356 1.164z"/><path d="m194.404 55.513c0 .4-.098.833-.295 1.299s-.507.923-.93 1.371c-.424.449-.963.813-1.621 1.093-.657.28-1.423.42-2.297.42-.663 0-1.266-.063-1.809-.189-.544-.126-1.036-.321-1.479-.587-.442-.266-.85-.616-1.221-1.05-.332-.394-.614-.836-.849-1.324-.234-.489-.41-1.01-.527-1.564s-.176-1.143-.176-1.766c0-1.012.147-1.917.441-2.717s.716-1.484 1.265-2.053 1.191-1.001 1.929-1.299c.737-.297 1.522-.446 2.357-.446 1.017 0 1.923.203 2.717.609.793.406 1.403.907 1.825 1.504.423.597.634 1.162.634 1.693 0 .291-.103.549-.308.771-.206.223-.454.334-.747.334-.325 0-.57-.077-.733-.231-.162-.154-.344-.42-.544-.797-.331-.623-.722-1.089-1.17-1.397-.448-.309-1.001-.463-1.658-.463-1.046 0-1.879.397-2.499 1.192-.62.794-.931 1.923-.931 3.386 0 .977.137 1.79.412 2.439.274.649.663 1.133 1.166 1.453.502.32 1.091.48 1.766.48.731 0 1.35-.181 1.855-.544.506-.363.887-.896 1.144-1.599.108-.331.243-.601.403-.81s.418-.313.772-.313c.303 0 .563.106.781.317.219.21.327.473.327.788z"/><path d="m202.222 46.7c1.303 0 2.422.264 3.356.793.935.529 1.642 1.28 2.122 2.254s.72 2.119.72 3.433c0 .972-.131 1.854-.394 2.649-.263.794-.657 1.483-1.183 2.066s-1.171 1.029-1.937 1.337c-.767.309-1.644.463-2.632.463-.983 0-1.863-.159-2.64-.476-.778-.317-1.427-.764-1.947-1.341s-.913-1.272-1.178-2.083-.399-1.689-.399-2.632c0-.966.138-1.852.416-2.657s.679-1.492 1.205-2.057c.525-.566 1.165-.999 1.92-1.299.753-.3 1.612-.45 2.571-.45zm3.617 6.464c0-.92-.148-1.717-.445-2.392-.297-.674-.722-1.184-1.273-1.53-.552-.346-1.184-.519-1.899-.519-.508 0-.978.096-1.41.287-.432.192-.803.47-1.115.836-.311.366-.557.833-.737 1.402s-.27 1.207-.27 1.916c0 .714.09 1.36.27 1.937s.434 1.056.763 1.436c.328.38.706.664 1.131.853.426.189.893.283 1.402.283.651 0 1.25-.163 1.796-.489s.979-.828 1.303-1.509c.323-.68.484-1.517.484-2.511z"/><path d="m214.84 57.587-2.014-8.006v8.675c0 .48-.107.84-.321 1.08-.215.24-.499.36-.853.36-.343 0-.623-.119-.84-.356-.218-.237-.326-.599-.326-1.084v-9.943c0-.549.143-.919.429-1.11s.672-.287 1.157-.287h.788c.474 0 .819.043 1.033.129.215.086.373.24.476.463.102.223.22.586.351 1.089l1.826 6.883 1.825-6.883c.131-.503.249-.866.351-1.089.103-.223.261-.377.476-.463.214-.086.559-.129 1.033-.129h.788c.485 0 .871.096 1.157.287.285.192.429.562.429 1.11v9.943c0 .48-.107.84-.321 1.08-.215.24-.502.36-.862.36-.337 0-.614-.12-.831-.36-.218-.24-.326-.6-.326-1.08v-8.675l-2.014 8.006c-.131.52-.239.901-.321 1.144-.083.243-.236.464-.458.664-.223.2-.532.3-.926.3-.297 0-.549-.064-.755-.193s-.366-.293-.48-.493-.204-.421-.269-.664c-.066-.242-.133-.495-.202-.758z"/><path d="m233.502 48.878h-5.735v3.086h5.281c.388 0 .678.087.87.261.191.174.287.404.287.69s-.094.519-.283.699-.48.27-.874.27h-5.281v3.575h5.932c.4 0 .701.093.904.279s.304.433.304.741c0 .297-.101.539-.304.724-.203.186-.504.279-.904.279h-6.918c-.554 0-.953-.123-1.195-.369-.244-.246-.365-.643-.365-1.192v-9.446c0-.366.055-.664.163-.896.108-.231.278-.4.51-.506s.527-.158.887-.158h6.721c.406 0 .707.09.904.27s.296.416.296.707c0 .297-.099.536-.296.716s-.498.27-.904.27z"/><path d="m241.928 54.038-.274-4.106c-.052-.8-.078-1.374-.078-1.723 0-.474.124-.844.373-1.11s.576-.399.981-.399c.491 0 .82.17.986.51.165.34.249.83.249 1.47 0 .377-.021.76-.061 1.149l-.368 4.226c-.041.503-.126.889-.258 1.157-.131.269-.349.403-.651.403-.309 0-.523-.13-.643-.39-.119-.26-.205-.655-.256-1.187zm.951 5.64c-.348 0-.652-.113-.913-.339-.26-.226-.39-.541-.39-.947 0-.354.124-.656.373-.904.249-.249.553-.373.913-.373s.667.124.922.373.382.55.382.904c0 .4-.129.714-.386.943-.258.229-.558.343-.901.343z"/></g><path d="m249.926 185.809c-1.64-2.818-5.273-3.783-8.114-2.156l-13.518 7.741c-.953.546-2.067.739-3.148.546l-17.636-3.149-2.451-.281h14.474c3.254 0 5.891-2.637 5.891-5.891 0-1.023-.829-1.851-1.851-1.851h-16.733c-1.173 0-2.332.255-3.397.746l-10.977 5.066c-1.716.792-3.582 1.202-5.472 1.202h-.372v15.485h3.24l36.905-3.24c.027-.002.053-.004.08-.006l1.065-.087c.872-.089 1.715-.36 2.476-.796l18.858-10.798c.89-.513 1.196-1.645.68-2.531z" fill="#f9cfcf"/><path d="m189.86 205.266h-3.239c-1.104 0-2-.896-2-2v-15.485c0-1.104.896-2 2-2h.371c1.589 0 3.191-.352 4.635-1.018l10.978-5.065c1.317-.608 2.781-.93 4.234-.93h16.732c2.124 0 3.852 1.728 3.852 3.851 0 3.003-1.687 5.62-4.161 6.953l2.236.399c.613.11 1.257-.001 1.802-.313l13.519-7.741c3.789-2.167 8.648-.874 10.836 2.886h.002c.518.891.656 1.93.389 2.925-.268.998-.909 1.83-1.808 2.345l-18.857 10.798c-1.01.578-2.108.931-3.266 1.05l-1.106.09-36.973 3.246c-.058.006-.117.009-.176.009zm-1.239-4h1.151l36.817-3.232c.009-.001.098-.008.107-.009l1.05-.085c.557-.058 1.124-.24 1.645-.539l18.724-10.721c-1.123-1.761-3.469-2.345-5.309-1.291l-13.519 7.741c-1.357.777-2.952 1.053-4.493.779l-17.575-3.138-2.389-.274c-1.054-.121-1.83-1.042-1.77-2.101s.937-1.886 1.997-1.886h14.474c2.096 0 3.81-1.666 3.888-3.742h-16.581c-.878 0-1.763.194-2.558.562l-10.979 5.066c-1.472.679-3.065 1.118-4.682 1.296v11.574z" fill="#3762cc"/><path d="m79.814 201.882c-.627 0-1.233-.296-1.617-.823l-22.688-31.154c-.616-.845-.852-1.918-.648-2.944.112-.564.353-1.091.695-1.542-1.41-.074-2.668-.936-3.242-2.239l-8.082-18.371c-.38-.864-.104-1.875.661-2.427 3.569-2.574 7.784-3.935 12.188-3.935h.416c.785 0 1.498.459 1.821 1.174l22.317 49.218c.118.26.179.542.179.826v10.217c0 .866-.558 1.634-1.381 1.902-.204.067-.413.098-.619.098zm-20.918-34.119 18.917 25.976v-3.641l-21.597-47.628c-2.711.137-5.313.915-7.641 2.282l7.335 16.674h3.125c1.304 0 2.417.843 2.771 2.098s-.156 2.555-1.268 3.236z" fill="#3762cc"/><path d="m79.813 201.882c-.206 0-.415-.032-.619-.098-.823-.268-1.381-1.036-1.381-1.902v-10.217c0-.285.061-.566.179-.826l22.317-49.218c.324-.715 1.036-1.174 1.821-1.174h.416c4.403 0 8.618 1.361 12.188 3.935.765.552 1.041 1.563.661 2.427l-8.082 18.37c-.574 1.304-1.832 2.166-3.242 2.239.342.451.583.978.695 1.542.204 1.026-.032 2.099-.648 2.944l-22.688 31.156c-.384.526-.99.822-1.617.822zm2-11.784v3.641l18.917-25.975-1.642-1.005c-1.112-.68-1.622-1.98-1.269-3.235.354-1.255 1.467-2.099 2.771-2.099h3.125l7.335-16.674c-2.329-1.367-4.931-2.145-7.642-2.282zm19.142-22.197h.01z" fill="#3762cc"/><path d="m38.219 199.882v-10.217-13.232-4.976-2.687-9.462c0-4.367 1.498-8.376 3.99-11.573l-34.781 33.675c-1.026.993-1.605 2.36-1.605 3.787v21.996c0 2.911 2.36 5.272 5.272 5.272h27.124z" fill="#4671c6"/><path d="m46.06 144.024.002-.019-.079.076c.026-.018.051-.038.077-.057z" fill="#4671c6"/><path d="m38.219 214.465h-27.124c-4.009 0-7.271-3.262-7.271-7.272v-21.996c0-1.958.807-3.862 2.214-5.225l34.78-33.673c.754-.73 1.946-.753 2.728-.051s.887 1.889.241 2.717c-2.334 2.994-3.567 6.571-3.567 10.344v53.155c-.001 1.105-.897 2.001-2.001 2.001zm-1.752-58.386-27.648 26.768c-.633.613-.996 1.47-.996 2.351v21.996c0 1.804 1.468 3.272 3.271 3.272h25.124v-51.156c.001-1.093.084-2.172.249-3.231z" fill="#3762cc"/><path d="m146.647 185.809c-1.64-2.818-5.273-3.783-8.114-2.156l-13.518 7.741c-.953.546-2.067.739-3.148.546l-17.636-3.149-2.451-.281h14.474c3.254 0 5.891-2.637 5.891-5.891 0-1.023-.829-1.851-1.851-1.851h-16.733c-1.173 0-2.332.255-3.397.746l-10.977 5.066c-1.716.792-3.582 1.202-5.472 1.202h-.372v15.485h3.24l36.905-3.24c.027-.002.053-.004.08-.006l1.065-.087c.872-.089 1.715-.36 2.476-.796l18.858-10.798c.889-.513 1.195-1.645.68-2.531z" fill="#f9cfcf"/><path d="m86.581 205.266h-3.239c-1.104 0-2-.896-2-2v-15.485c0-1.104.896-2 2-2h.372c1.588 0 3.191-.352 4.634-1.018l10.978-5.065c1.318-.608 2.782-.93 4.235-.93h16.733c2.124 0 3.852 1.728 3.852 3.851 0 3.003-1.686 5.62-4.162 6.953l2.236.399c.617.11 1.257-.001 1.804-.313l13.518-7.741c3.788-2.168 8.647-.873 10.836 2.886.519.891.657 1.93.391 2.926-.268.998-.91 1.831-1.81 2.346l-18.857 10.798c-1.008.578-2.107.932-3.265 1.05l-1.107.09-36.972 3.246c-.061.004-.119.007-.177.007zm-1.24-4h1.152l36.817-3.232c.009-.001.093-.008.102-.008l1.056-.086c.556-.058 1.123-.24 1.644-.538l18.724-10.722c-1.122-1.762-3.471-2.342-5.308-1.291l-13.519 7.741c-1.357.777-2.955 1.055-4.493.779l-17.575-3.138-2.389-.274c-1.053-.121-1.83-1.042-1.769-2.101.06-1.059.937-1.886 1.997-1.886h14.474c2.096 0 3.81-1.666 3.888-3.742h-16.582c-.878 0-1.762.194-2.559.562l-10.978 5.065c-1.472.679-3.065 1.118-4.681 1.296v11.575zm59.577-14.45h.011z" fill="#3762cc"/><path d="m79.814 189.665 7.262-16.015-1.97-9.469h-5.292-.13-5.293l-1.928 9.273z" fill="#f9a7a7"/><path d="m85.106 166.181h-10.714c-.988 0-1.828-.722-1.977-1.699l-.962-6.315c-.074-.483.032-.977.297-1.387l6.32-9.779c.368-.57 1.001-.915 1.68-.915.679 0 1.312.344 1.68.915l6.319 9.779c.265.41.371.904.297 1.387l-.962 6.315c-.149.977-.989 1.699-1.978 1.699zm-8.996-4h7.278l.589-3.866-4.228-6.543-4.229 6.543z" fill="#3762cc"/><path d="m79.813 191.666c-.785 0-1.498-.459-1.821-1.174l-7.351-16.212c-.175-.386-.223-.818-.137-1.233l1.929-9.273c.193-.928 1.01-1.593 1.958-1.593h10.715c.948 0 1.765.665 1.958 1.593l1.97 9.469c.086.415.039.847-.137 1.233l-7.263 16.016c-.323.715-1.035 1.174-1.821 1.174zm-5.26-18.444 5.26 11.601 5.172-11.405-1.506-7.237h-7.461z" fill="#3762cc"/><path d="m79.813 240.04c-1.104 0-2-.896-2-2v-38.157c0-1.104.896-2 2-2s2 .896 2 2v38.157c0 1.104-.895 2-2 2z" fill="#3762cc"/><path d="m81.341 212.465h-61.537v-32.55h61.537c1.105 0 2 .895 2 2v28.55c0 1.104-.895 2-2 2z" fill="#4671c6"/><path d="m81.341 214.465h-61.537c-1.104 0-2-.896-2-2s.896-2 2-2h61.537v-28.55h-61.537c-1.104 0-2-.896-2-2s.896-2 2-2h61.537c2.206 0 4 1.794 4 4v28.55c0 2.205-1.794 4-4 4z" fill="#3762cc"/><path d="m79.749 148.087 5.19 9.779c.473.891 1.693 1.027 2.35.262l14.505-16.878c.409-.476.46-1.163.126-1.695l-1.596-2.539c-.499-.794-1.371-1.276-2.309-1.276h-1.484z" fill="#e0ebfc"/><path d="m86.205 160.626c-.126 0-.254-.007-.381-.021-1.128-.126-2.12-.799-2.652-1.802l-5.19-9.779c-.465-.876-.218-1.96.582-2.548l16.782-12.347c.343-.253.759-.389 1.185-.389h1.484c1.635 0 3.131.827 4.001 2.211l1.596 2.539c.806 1.281.685 2.914-.303 4.063l-14.505 16.878c-.654.763-1.605 1.195-2.599 1.195zm-3.88-11.952 3.99 7.518 13.688-15.928-1.373-2.184c-.134-.213-.364-.34-.615-.34h-.828z" fill="#3762cc"/><path d="m79.814 148.087-5.19 9.779c-.473.891-1.693 1.027-2.35.262l-14.505-16.878c-.409-.476-.46-1.163-.126-1.695l1.596-2.539c.499-.794 1.371-1.276 2.309-1.276h1.484z" fill="#e0ebfc"/><path d="m73.358 160.626c-.994 0-1.946-.432-2.602-1.195l-14.504-16.878c-.988-1.149-1.109-2.782-.302-4.064l1.595-2.538c.871-1.385 2.366-2.211 4.001-2.211h1.484c.426 0 .842.136 1.185.389l16.782 12.347c.799.588 1.046 1.672.582 2.548l-5.19 9.779c-.532 1.003-1.523 1.676-2.652 1.802-.126.014-.253.021-.379.021zm-13.799-20.362 13.688 15.928 3.99-7.518-14.862-10.935h-.828c-.251 0-.481.127-.615.34z" fill="#3762cc"/><path d="m123.927 84.943h-8.145c-3.91 0-7.091-3.181-7.091-7.09v-36.314c0-3.91 3.181-7.09 7.091-7.09 8.401 0 15.236 6.834 15.236 15.235v28.169c.001 3.909-3.181 7.09-7.091 7.09zm-8.145-46.495c-1.704 0-3.091 1.386-3.091 3.09v36.314c0 1.704 1.387 3.09 3.091 3.09h8.145c1.705 0 3.091-1.386 3.091-3.09v-28.168c.001-6.196-5.04-11.236-11.236-11.236z" fill="#3762cc"/><path d="m174.071 108.046c-.701 0-1.403-.183-2.04-.55-1.352-.78-2.13-2.232-2.031-3.789l1.032-16.282h-19.899c-7.975 0-14.462-6.488-14.462-14.462v-42.708c0-7.975 6.487-14.462 14.462-14.462h86.542c7.975 0 14.462 6.488 14.462 14.462v42.708c0 7.975-6.487 14.462-14.462 14.462h-31.373l-29.976 19.935c-.686.457-1.47.686-2.255.686zm-22.938-88.254c-5.769 0-10.462 4.693-10.462 10.462v42.708c0 5.769 4.693 10.462 10.462 10.462h22.03c.553 0 1.08.229 1.458.631s.573.944.538 1.495l-1.167 18.408.119.069 30.479-20.267c.328-.218.713-.334 1.107-.334h31.978c5.769 0 10.462-4.693 10.462-10.462v-42.709c0-5.769-4.693-10.462-10.462-10.462h-86.542z" fill="#3762cc"/><path d="m80.792 124.01h-1.958c-1.981 0-3.833-.462-5.354-1.336-1.195-.688-2.226-1.583-3.064-2.663-1.137-1.464-1.862-3.205-2.098-5.033-.091-.708.128-1.424.602-1.963.477-.543 1.164-.854 1.885-.854h18.015c.721 0 1.408.311 1.885.854.474.54.693 1.255.602 1.964-.236 1.828-.961 3.568-2.098 5.032-.838 1.08-1.869 1.976-3.064 2.663-1.52.874-3.371 1.336-5.353 1.336zm-9.402-8.85c.229 1.09.706 2.121 1.396 3.01.598.771 1.335 1.411 2.19 1.902 1.066.613 2.4.937 3.858.937h1.958c1.458 0 2.792-.324 3.858-.937.855-.492 1.592-1.132 2.19-1.902.69-.889 1.167-1.92 1.396-3.01z" fill="#3762cc"/><path d="m101.331 35.345h-41.505c-5.05 0-10.088-.764-14.851-2.444-4.329-1.527-8.856-3.908-11.435-7.56-.69-.977-2.426-.709-2.728.403-2.695 9.909-8.354 37.176 7.077 48.734 0 0 3.984 2.976 7.296 3.748l.003-.02c1.986.644 4.106 1.012 6.322 1.012h38.9c11.201 0 20.282-8.618 20.282-19.25v-15.74c0-4.906-4.191-8.883-9.361-8.883z" fill="#4671c6"/><path d="m90.41 81.219h-38.901c-2.238 0-4.476-.343-6.658-1.02-.041-.007-.081-.015-.121-.024-3.677-.857-7.862-3.962-8.038-4.093-16.229-12.157-10.869-39.619-7.81-50.861.341-1.254 1.396-2.183 2.756-2.422 1.38-.247 2.768.302 3.536 1.39 1.957 2.77 5.478 5.067 10.467 6.827 4.382 1.546 9.155 2.33 14.186 2.33h41.505c6.264 0 11.36 4.883 11.36 10.884v15.74c-.001 11.716-9.996 21.249-22.282 21.249zm-45.004-4.999c.134.014.268.042.398.084 1.872.606 3.791.914 5.705.914h38.901c10.08 0 18.281-7.738 18.281-17.25v-15.74c0-3.796-3.302-6.884-7.36-6.884h-41.505c-5.485 0-10.706-.86-15.517-2.558-5.356-1.89-9.33-4.421-11.83-7.532-2.381 9.187-7.512 35.045 6.608 45.623.984.733 3.978 2.715 6.319 3.343z" fill="#3762cc"/></svg>